<svg version="1.0" xmlns="http://www.w3.org/2000/svg" width="933.333" height="933.333" viewBox="0 0 700 700"><path d="M322 95.8c-6 .6-10 2.4-12.1 5.4-2.2 3-2.2 3.7-2.3 36.2l-.1 33.1-15.1.1c-8.4.1-16.3.4-17.7.8-1.4.3-3.6 2-4.8 3.8-2 2.7-2.3 4.5-2.3 11.8 0 16.6 1.9 18 24.1 18h15.9v70.7c0 39 .3 75.1.7 80.3 2 26.3 10.1 39.3 29.2 46.5 3.8 1.4 18.5 3.2 23.7 2.9 18.8-1.2 27.7-3.3 48.3-11.4 6.1-2.4 13.7-6.3 18.6-9.5.8-.6 2.2-2.1 3.1-3.4 2.1-3 .9-6.5-6-18-7.7-12.5-8.8-12.9-19-8.1-8.5 4-25.5 9.7-31.7 10.7-7.9 1.1-15.3.6-18.8-1.4-1.9-1.1-4.2-3.8-5.7-6.8l-2.5-5-.3-73.8-.3-73.7 34.8-.1c19.1-.1 35.1-.1 35.4-.1.3.1 2.1-1.4 3.9-3.3 3.2-3.3 3.3-3.6 3.4-12.2 0-11.2-.7-13.6-4.5-16.4-3.1-2.2-3.6-2.2-38-2.2H347v-33.4c0-35.1-.2-36.7-4.6-40.4-1.6-1.3-12.8-1.9-20.4-1.1zM93.8 167.1c-15.3 3-24 6.5-38.2 15.1-21.7 13.3-40.5 37.4-49 62.9-7.4 22.3-8.3 49.5-2.3 71.9 8.5 31.5 29.4 59.2 56.2 74.2 10.3 5.8 25.3 11.2 34.2 12.4 1.9.2 3.9.7 4.4 1 2 1.2 25 .6 33.6-1 46-8.1 82.3-44.9 92.9-94.1 2.5-11.8 2.7-34.5.4-46.5-5-25.9-16.1-47.2-33.9-64.9-26.3-26.3-63.4-38-98.3-31zm36.1 37.7c16.4 3.7 33 15.2 43.3 30 4.2 6.1 10.4 19.6 12.2 26.7 8.8 34.9-3.3 72.6-29.7 92.4-15.3 11.5-32.9 16.1-51.3 13.6-28.7-4-52.8-26.6-61.4-57.8-9.2-33.3 1.3-70 25.9-90.4 9.2-7.6 22.6-13.8 34.1-15.7 5.5-.9 20.7-.2 26.9 1.2zM565.3 167.1c-27.2 5.5-51.3 20.8-68.5 43.5-9.9 13-19 33.4-22.4 50.4-1.7 8.4-2.6 32.7-1.4 39.2.5 2.4 1.1 6.1 1.4 8.3 3.3 20.8 15.2 44.4 31 61.2 17.7 18.9 40.9 31 66.6 34.9 5.3.8 24.4.7 28-.1 1.4-.3 4.1-.7 6-1 10-1.4 23.4-6.5 35.5-13.6 10-5.9 13-8.3 23.1-18.4 16.3-16.3 27-36 32.6-60 2.2-9.6 3-33.3 1.6-44.5-4.9-37.1-30.4-73.5-63.2-89.8-22.3-11.1-47.2-14.7-70.3-10.1zm35.2 37.4c35.1 7.3 59.9 41 59.6 81 0 4.9-.3 10.1-.6 11.5-.2 1.3-.7 4.1-1 6.2-1.5 9.5-7.8 24.7-13.9 33.3-9.1 12.7-24.8 24.9-36.1 28-1.6.5-3.2.9-3.5 1-1.3.3-6.7 1.6-9 2-5.2 1.1-18 .5-25-1.1-13.1-2.9-24-9-34.1-18.9-33.3-32.7-33.7-90.9-.9-123.5 17.5-17.4 40.7-24.4 64.5-19.5zM200.4 474c-6.3 2.8-17.7 13.1-18.8 16.8-1.7 6.2.4 9.9 12.6 21.8 12.7 12.4 21.1 19.3 34.5 28.2 27.3 18.4 59.2 30.6 93.3 35.9 16.5 2.5 54.8 2.4 68.8-.2.9-.1 3.7-.6 6.2-1s7.2-1.4 10.5-2.2c3.3-.8 6.7-1.6 7.6-1.8 4.2-.8 18.4-5.6 26.9-9 19.3-7.8 39.3-19.4 56-32.4 8.3-6.4 31.9-29.1 32.1-30.8 0-.4.2-1.9.4-3.3.7-5.2-1.5-8.9-8.8-14.8-9.7-7.9-11.4-8.7-18-8.3-1 .1-7 5.1-13.4 11.2-21.3 20.4-41.6 33.5-67.1 43.4-8.7 3.3-25.5 8-32.8 9-2.2.3-4.5.8-5.2 1-3.2 1.1-18.9 2-32.7 1.8-48.7-.5-96.9-20.6-130-54.3-12.7-12.9-15.2-14.2-22.1-11z"/></svg>