<?xml version="1.0" standalone="no"?>
<!DOCTYPE svg PUBLIC "-//W3C//DTD SVG 20010904//EN"
 "http://www.w3.org/TR/2001/REC-SVG-20010904/DTD/svg10.dtd">
<svg version="1.0" xmlns="http://www.w3.org/2000/svg"
 width="700.000000pt" height="700.000000pt" viewBox="0 0 700.000000 700.000000"
 preserveAspectRatio="xMidYMid meet">
<metadata>
Created by potrace 1.11, written by Peter Selinger 2001-2013
</metadata>
<g transform="translate(0.000000,700.000000) scale(0.100000,-0.100000)"
fill="#000000" stroke="none">
<path d="M3220 6042 c-60 -6 -100 -24 -121 -54 -22 -30 -22 -37 -23 -362 l-1
-331 -151 -1 c-84 -1 -163 -4 -177 -8 -14 -3 -36 -20 -48 -38 -20 -27 -23 -45
-23 -118 0 -166 19 -180 241 -180 l159 0 0 -707 c0 -390 3 -751 7 -803 20
-263 101 -393 292 -465 38 -14 185 -32 237 -29 188 12 277 33 483 114 61 24
137 63 186 95 8 6 22 21 31 34 21 30 9 65 -60 180 -77 125 -88 129 -190 81
-85 -40 -255 -97 -317 -107 -79 -11 -153 -6 -188 14 -19 11 -42 38 -57 68
l-25 50 -3 738 -3 737 348 1 c191 1 351 1 354 1 3 -1 21 14 39 33 32 33 33 36
34 122 0 112 -7 136 -45 164 -31 22 -36 22 -380 22 l-349 0 0 334 c0 351 -2
367 -46 404 -16 13 -128 19 -204 11z"/>
<path d="M938 5329 c-153 -30 -240 -65 -382 -151 -217 -133 -405 -374 -490
-629 -74 -223 -83 -495 -23 -719 85 -315 294 -592 562 -742 103 -58 253 -112
342 -124 19 -2 39 -7 44 -10 20 -12 250 -6 336 10 460 81 823 449 929 941 25
118 27 345 4 465 -50 259 -161 472 -339 649 -263 263 -634 380 -983 310z m361
-377 c164 -37 330 -152 433 -300 42 -61 104 -196 122 -267 88 -349 -33 -726
-297 -924 -153 -115 -329 -161 -513 -136 -287 40 -528 266 -614 578 -92 333
13 700 259 904 92 76 226 138 341 157 55 9 207 2 269 -12z"/>
<path d="M5653 5329 c-272 -55 -513 -208 -685 -435 -99 -130 -190 -334 -224
-504 -17 -84 -26 -327 -14 -392 5 -24 11 -61 14 -83 33 -208 152 -444 310
-612 177 -189 409 -310 666 -349 53 -8 244 -7 280 1 14 3 41 7 60 10 100 14
234 65 355 136 100 59 130 83 231 184 163 163 270 360 326 600 22 96 30 333
16 445 -49 371 -304 735 -632 898 -223 111 -472 147 -703 101z m352 -374 c351
-73 599 -410 596 -810 0 -49 -3 -101 -6 -115 -2 -13 -7 -41 -10 -62 -15 -95
-78 -247 -139 -333 -91 -127 -248 -249 -361 -280 -16 -5 -32 -9 -35 -10 -13
-3 -67 -16 -90 -20 -52 -11 -180 -5 -250 11 -131 29 -240 90 -341 189 -333
327 -337 909 -9 1235 175 174 407 244 645 195z"/>
<path d="M2004 2260 c-63 -28 -177 -131 -188 -168 -17 -62 4 -99 126 -218 127
-124 211 -193 345 -282 273 -184 592 -306 933 -359 165 -25 548 -24 688 2 9 1
37 6 62 10 25 4 72 14 105 22 33 8 67 16 76 18 42 8 184 56 269 90 193 78 393
194 560 324 83 64 319 291 321 308 0 4 2 19 4 33 7 52 -15 89 -88 148 -97 79
-114 87 -180 83 -10 -1 -70 -51 -134 -112 -213 -204 -416 -335 -671 -434 -87
-33 -255 -80 -328 -90 -22 -3 -45 -8 -52 -10 -32 -11 -189 -20 -327 -18 -487
5 -969 206 -1300 543 -127 129 -152 142 -221 110z"/>
</g>
</svg>
